<svg xmlns="http://www.w3.org/2000/svg" xmlns:xlink="http://www.w3.org/1999/xlink" width="500" zoomAndPan="magnify" viewBox="0 0 375 374.999991" height="500" preserveAspectRatio="xMidYMid meet" version="1.0"><defs><g/></defs><g fill="#ffffff" fill-opacity="1"><g transform="translate(58.858774, 259.324934)"><g><path d="M 197.515625 -179.046875 L 197.515625 0 L 174.484375 0 L 174.484375 -112.3125 L 110.640625 -21.84375 L 110.15625 -21.84375 L 47.515625 -109.203125 L 47.515625 0 L 24.953125 0 L 24.953125 -179.046875 L 25.203125 -179.046875 L 110.640625 -58.078125 L 197.28125 -179.046875 Z M 197.515625 -179.046875 "/></g></g></g><g fill="#ffffff" fill-opacity="1"><g transform="translate(207.909704, 310.12498)"><g><path d="M 72.109375 -174.96875 C 91.148438 -174.96875 106.035156 -170.207031 116.765625 -160.6875 C 127.492188 -151.164062 132.859375 -137.859375 132.859375 -120.765625 C 132.859375 -110.921875 130.878906 -101.722656 126.921875 -93.171875 C 122.972656 -84.617188 116.601562 -77.679688 107.8125 -72.359375 C 99.019531 -67.035156 87.925781 -64.375 74.53125 -64.375 L 48.640625 -64.375 L 48.640625 0 L 25.171875 0 L 25.171875 -174.96875 Z M 74.53125 -87.125 C 82.925781 -87.125 89.742188 -88.894531 94.984375 -92.4375 C 100.222656 -95.988281 103.972656 -100.304688 106.234375 -105.390625 C 108.492188 -110.472656 109.625 -115.4375 109.625 -120.28125 C 109.625 -128.664062 106.878906 -136.125 101.390625 -142.65625 C 95.910156 -149.1875 87.363281 -152.453125 75.75 -152.453125 L 48.640625 -152.453125 L 48.640625 -87.125 Z M 74.53125 -87.125 "/></g></g></g><path fill="#ffffff" d="M 187.5 375 C 83.910156 375 0 290.507812 0 187.5 C 0 84.492188 83.910156 0 187.5 0 C 291.089844 0 375 83.910156 375 187.5 C 375 291.089844 290.507812 375 187.5 375 Z M 187.5 11.574219 C 90.277344 11.574219 11.574219 90.277344 11.574219 187.5 C 11.574219 284.722656 90.277344 363.425781 187.5 363.425781 C 284.722656 363.425781 363.425781 284.722656 363.425781 187.5 C 363.425781 90.277344 284.144531 11.574219 187.5 11.574219 Z M 187.5 11.574219 " fill-opacity="1" fill-rule="nonzero"/></svg>